<?xml version="1.0" standalone="no"?>
<!DOCTYPE svg PUBLIC "-//W3C//DTD SVG 20010904//EN"
 "http://www.w3.org/TR/2001/REC-SVG-20010904/DTD/svg10.dtd">
<svg version="1.0" xmlns="http://www.w3.org/2000/svg"
 width="450.000000pt" height="426.000000pt" viewBox="0 0 450.000000 426.000000"
 preserveAspectRatio="xMidYMid meet">
<metadata>
Created by potrace 1.16, written by Peter Selinger 2001-2019
</metadata>
<g transform="translate(0.000000,426.000000) scale(0.100000,-0.100000)"
fill="#000000" stroke="none">
<path d="M0 2710 l0 -1550 130 0 c122 0 130 -1 130 -19 0 -11 -9 -23 -20 -26
-26 -8 -26 -35 1 -35 14 0 19 -5 17 -17 -3 -19 -6 -19 -190 -24 -83 -2 -95
-24 -16 -28 29 -1 56 -8 60 -14 6 -9 10 -9 16 0 9 14 27 17 89 15 l41 -2 4
-288 c3 -286 3 -288 29 -337 15 -30 42 -62 68 -80 l43 -30 536 -8 c296 -4
1120 -6 1832 -5 1222 3 1297 4 1335 21 104 47 124 95 125 292 0 83 3 227 7
320 l6 170 96 -2 c53 -1 111 0 129 3 l32 5 0 1594 0 1595 -2250 0 -2250 0 0
-1550z m2921 549 c-55 -156 -138 -396 -186 -534 -47 -137 -104 -289 -127 -337
-40 -85 -55 -99 -84 -80 -13 7 -14 4 165 442 51 124 144 355 208 513 63 158
117 286 119 284 2 -2 -41 -131 -95 -288z m-936 35 c72 -15 88 -27 121 -87 25
-47 13 -60 -55 -54 -34 2 -73 12 -92 24 -68 41 -133 55 -239 51 l-98 -3 -4 27
c-3 15 -1 33 3 39 18 29 227 31 364 3z m393 -370 c49 -16 51 -18 63 -67 12
-49 12 -50 26 -26 23 38 10 5 -94 -253 -103 -254 -103 -254 -140 -184 -14 26
-16 64 -15 216 0 102 3 192 6 200 2 8 12 38 21 67 21 66 45 75 133 47z m214
-759 c2 3 47 -71 100 -163 53 -91 100 -168 105 -169 5 -2 54 66 109 151 l99
154 3 -44 c4 -52 -19 -124 -53 -168 -14 -18 -25 -45 -25 -59 0 -15 -17 -50
-37 -78 -35 -50 -36 -53 -21 -78 8 -14 48 -79 87 -143 l73 -118 -23 -31 c-20
-29 -84 -65 -129 -74 -15 -3 -32 19 -82 106 -35 60 -66 109 -69 109 -16 0
-269 -420 -269 -447 l0 -24 -22 20 c-12 12 -29 23 -38 26 -9 3 -23 16 -30 30
-7 13 -18 21 -24 18 -8 -5 -8 -3 0 8 17 22 288 410 308 441 17 26 17 27 -29
107 -26 44 -44 84 -41 90 11 17 -12 60 -41 75 -16 8 -39 33 -51 55 -22 38 -23
45 -12 99 20 93 45 127 84 112 13 -5 26 -7 28 -5z"/>
</g>
</svg>
